<svg width="160" height="122" viewBox="0 0 160 122" fill="none" xmlns="http://www.w3.org/2000/svg">
<path d="M114.212 1.04575L114.066 1H113.913H2.34613H1.69609L1.43222 1.59408C0.935448 2.71254 0.90328 4.01012 1.15196 5.34838C1.40164 6.69206 1.94809 8.15355 2.70287 9.66612C4.21278 12.6919 6.6231 16.0537 9.45865 19.2976C15.1062 25.7585 22.6413 31.9772 28.5199 34.194L28.6858 34.2565L28.863 34.2582L108.884 35.0364C109.672 35.6547 110.198 36.0991 110.532 36.4605C110.711 36.6553 110.8 36.7898 110.843 36.8773C110.878 36.9502 110.876 36.9788 110.876 36.9858L110.876 36.9865C110.873 37.0308 110.833 37.2225 110.407 37.7105C110.046 38.1242 109.533 38.6164 108.83 39.2914H30.433H29.1665L29.4603 40.5233C31.8668 50.6154 35.9639 57.5335 42.1422 62.8705C48.2829 68.1751 56.4158 71.8591 66.7607 75.6154L66.9261 75.6755H67.102H115.291C118.513 76.906 119.876 78.0871 120.287 79.4848C120.502 80.2173 120.495 81.1288 120.198 82.3349C119.932 83.4146 119.445 84.6793 118.739 86.188L65.845 86.9604L64.5007 86.98L64.9061 88.2618C67.3033 95.8407 69.8197 101.604 74.0515 106.683C78.2789 111.757 84.1571 116.074 93.1572 120.882L93.3781 121H93.6284H124.836H125.004L125.163 120.945C146.817 113.452 156.561 102.291 158.591 89.5832C160.584 77.106 155.067 63.4894 146.956 51.0185C149.373 37.5917 149.491 27.6049 144.76 19.7011C139.986 11.7248 130.43 6.12768 114.212 1.04575Z" fill="#C70031" stroke="#C70031" stroke-width="2"/>
</svg>
