<svg width="34" height="34" viewBox="0 0 34 34" fill="none" xmlns="http://www.w3.org/2000/svg">
<path d="M24.4375 24.4375H9.27031L5.56484 4.06406C5.52149 3.82008 5.39422 3.59892 5.20504 3.43885C5.01587 3.27878 4.7767 3.18987 4.52891 3.1875H2.125" stroke="white" stroke-width="2" stroke-linecap="round" stroke-linejoin="round"/>
<path d="M10.625 29.75C12.092 29.75 13.2812 28.5608 13.2812 27.0938C13.2812 25.6267 12.092 24.4375 10.625 24.4375C9.15799 24.4375 7.96875 25.6267 7.96875 27.0938C7.96875 28.5608 9.15799 29.75 10.625 29.75Z" stroke="white" stroke-width="2" stroke-linecap="round" stroke-linejoin="round"/>
<path d="M24.4375 29.75C25.9045 29.75 27.0938 28.5608 27.0938 27.0938C27.0938 25.6267 25.9045 24.4375 24.4375 24.4375C22.9705 24.4375 21.7812 25.6267 21.7812 27.0938C21.7812 28.5608 22.9705 29.75 24.4375 29.75Z" stroke="white" stroke-width="2" stroke-linecap="round" stroke-linejoin="round"/>
<path d="M8.30078 19.125H24.982C25.4787 19.1265 25.96 18.9529 26.3414 18.6347C26.7227 18.3165 26.9797 17.8741 27.0672 17.3852L28.6875 8.5H6.375" stroke="white" stroke-width="2" stroke-linecap="round" stroke-linejoin="round"/>
</svg>
