<svg width="52" height="52" viewBox="0 0 52 52" fill="none" xmlns="http://www.w3.org/2000/svg">
<rect width="52" height="52" fill="white"/>
<path d="M52 0H0V52H52V0Z" fill="white"/>
<path d="M26 45.5C36.7696 45.5 45.5 36.7696 45.5 26C45.5 15.2304 36.7696 6.5 26 6.5C15.2304 6.5 6.5 15.2304 6.5 26C6.5 36.7696 15.2304 45.5 26 45.5Z" fill="#D9D9D9" stroke="white" stroke-width="2" stroke-linecap="round" stroke-linejoin="round"/>
<path d="M26 32.5C30.4873 32.5 34.125 28.8623 34.125 24.375C34.125 19.8877 30.4873 16.25 26 16.25C21.5127 16.25 17.875 19.8877 17.875 24.375C17.875 28.8623 21.5127 32.5 26 32.5Z" fill="#D9D9D9" stroke="white" stroke-width="2" stroke-linecap="round" stroke-linejoin="round"/>
<path d="M12.9595 40.5031C14.1821 38.0949 16.0477 36.0723 18.3495 34.6595C20.6513 33.2466 23.2993 32.4988 26.0001 32.4988C28.7009 32.4988 31.3489 33.2466 33.6507 34.6595C35.9525 36.0723 37.8181 38.0949 39.0407 40.5031" fill="#D9D9D9"/>
<path d="M12.9595 40.5031C14.1821 38.0949 16.0477 36.0723 18.3495 34.6595C20.6513 33.2466 23.2993 32.4988 26.0001 32.4988C28.7009 32.4988 31.3489 33.2466 33.6507 34.6595C35.9525 36.0723 37.8181 38.0949 39.0407 40.5031" stroke="white" stroke-width="2" stroke-linecap="round" stroke-linejoin="round"/>
</svg>
